<svg width="60" height="60" viewBox="0 0 60 60" fill="none" xmlns="http://www.w3.org/2000/svg">
<path d="M13.2851 52.5C12.6031 52.5 11.949 52.2291 11.4668 51.7468C10.9846 51.2646 10.7137 50.6106 10.7137 49.9286V10.0714C10.7137 9.38944 10.9846 8.73539 11.4668 8.25315C11.949 7.77092 12.6031 7.5 13.2851 7.5C13.9671 7.5 14.6211 7.77092 15.1034 8.25315C15.5856 8.73539 15.8565 9.38944 15.8565 10.0714V49.9286C15.8565 50.6106 15.5856 51.2646 15.1034 51.7468C14.6211 52.2291 13.9671 52.5 13.2851 52.5Z" fill="#8899A6"/>
<path d="M13.2851 7.5C12.6031 7.5 11.949 7.77092 11.4668 8.25315C10.9846 8.73539 10.7137 9.38944 10.7137 10.0714V49.9286C10.7137 50.0991 10.7814 50.2626 10.9019 50.3831C11.0225 50.5037 11.186 50.5714 11.3565 50.5714C11.527 50.5714 11.6905 50.5037 11.8111 50.3831C11.9316 50.2626 11.9994 50.0991 11.9994 49.9286V11.8894C11.9994 10.8853 12.8132 10.0714 13.8174 10.0714H15.8565C15.8565 9.38944 15.5856 8.73539 15.1034 8.25315C14.6211 7.77092 13.9671 7.5 13.2851 7.5Z" fill="#AAB8C2"/>
<path d="M13.2851 52.5C12.6031 52.5 11.949 52.2291 11.4668 51.7468C10.9846 51.2646 10.7137 50.6106 10.7137 49.9286V10.0714C10.7137 9.38944 10.9846 8.73539 11.4668 8.25315C11.949 7.77092 12.6031 7.5 13.2851 7.5C13.9671 7.5 14.6211 7.77092 15.1034 8.25315C15.5856 8.73539 15.8565 9.38944 15.8565 10.0714V49.9286C15.8565 50.6106 15.5856 51.2646 15.1034 51.7468C14.6211 52.2291 13.9671 52.5 13.2851 52.5Z" fill="#AAB8C2"/>
<path d="M48.5334 10.1863C46.2808 9.15901 43.8855 8.66016 41.2074 8.66016C37.9699 8.66016 34.7531 9.39301 31.6442 10.1027C28.5354 10.8112 25.5988 11.481 22.6507 11.481C20.3492 11.481 18.3024 11.058 16.3918 10.1876C16.196 10.098 15.9808 10.059 15.766 10.0743C15.5511 10.0895 15.3436 10.1585 15.1624 10.2748C14.9812 10.3911 14.8321 10.5511 14.7288 10.7401C14.6255 10.9291 14.5713 11.1409 14.5712 11.3563V35.7849C14.5712 36.2889 14.8657 36.7453 15.3234 36.9549C17.5759 37.9822 19.9725 38.481 22.6494 38.481C25.8868 38.481 29.1037 37.7482 32.2125 37.0384C35.3214 36.33 38.2579 35.6614 41.2061 35.6614C43.5075 35.6614 45.5557 36.0844 47.4649 36.9562C47.6611 37.0448 47.8762 37.0829 48.0908 37.0671C48.3055 37.0512 48.5127 36.9819 48.6937 36.8655C48.8747 36.7491 49.0236 36.5892 49.127 36.4004C49.2304 36.2117 49.2849 36.0001 49.2855 35.7849V11.3563C49.2856 11.1097 49.2147 10.8683 49.0813 10.6608C48.948 10.4534 48.7577 10.2886 48.5334 10.1863V10.1863Z" fill="#E1E8ED"/>
</svg>
